<svg id="Layer_1" data-name="Layer 1" xmlns="http://www.w3.org/2000/svg" viewBox="0 0 61.46 85.64"><defs><style>.cls-1{fill:#446bc1;}</style></defs><title>mouse</title><path d="M35.32,49.72V47.19c0-11.15-.07-22.3.06-33.45a16.7,16.7,0,0,1,1.3-6.33c1.08-2.48,3.39-3.48,6.12-3.07a5.53,5.53,0,0,1,4.88,4.51,15.85,15.85,0,0,1,.38,3.64c0,7.29,0,14.58,0,21.87V37.3c3.5-2.45,6.76-2.6,10.22-.9a9.55,9.55,0,0,0,3.62.5c2.93.14,5.48.88,7.31,3.45A6.75,6.75,0,0,0,72,42.26a10.53,10.53,0,0,1,6.37,7.26c1.75,6.94,1.78,13.88-2.64,19.91a22,22,0,0,0-4.51,15.22c.3,4.29-.87,5.23-5.19,5.23q-11.31,0-22.64,0c-3.54,0-4.69-1.13-4.71-4.74,0-4-1-7.32-4.29-10-2.94-2.34-4.51-5.69-5.76-9.26a36.25,36.25,0,0,0-3.87-7.09c-1.26-2-2.9-3.76-4.14-5.77a20.3,20.3,0,0,1-2.26-5c-1-3.36.09-6.13,2.57-7.62a6.89,6.89,0,0,1,8.06,1,20.12,20.12,0,0,1,3,3.91c1,1.44,1.74,3,2.59,4.51Zm2.22-17.64c0,6.15.05,12.3,0,18.44a20.88,20.88,0,0,1-.85,4,20.22,20.22,0,0,1-3.09-3c-1.69-2.45-3-5.17-4.72-7.58a5,5,0,0,0-6.49-1.82c-2.09,1.13-2.91,3.28-1.56,6.2s3.4,5.48,5.05,8.25,3.27,5.75,4.94,8.62,2.83,6.2,5.14,8.34a14.47,14.47,0,0,1,4.81,11.45c0,2.06.73,2.76,2.78,2.73,7.46-.08,14.92,0,22.38,0,3.31,0,3.45,0,3.31-3.44-.21-5.12.23-10,3.59-14.2,3.91-4.88,4.94-10.55,4.3-16.61a11.81,11.81,0,0,0-5.37-9.14c-4.47-3.05-8.76-6.17-14.49-6.09a2.43,2.43,0,0,1-.75-.24c-4.12-1.54-6.74-.37-8.36,3.62-.22.54-.83.92-1.26,1.37-.27-.57-.77-1.13-.78-1.7-.08-3.08,0-6.15,0-9.22,0-7,0-14.06,0-21.08,0-2.32-1-4.12-3.54-4.53-2.16-.35-4,1.14-4.64,3.73a16,16,0,0,0-.27,3.4C37.53,19.79,37.54,25.93,37.54,32.08Z" transform="translate(-18 -4.25)"/><path class="cls-1" d="M37.54,32.08c0-6.15,0-12.29,0-18.44a16,16,0,0,1,.27-3.4c.61-2.59,2.48-4.08,4.64-3.73C45,6.92,46,8.72,46,11c.07,7,0,14.05,0,21.08,0,3.07,0,6.14,0,9.22,0,.57.51,1.13.78,1.7.43-.45,1-.83,1.26-1.37,1.62-4,4.24-5.16,8.36-3.62a2.43,2.43,0,0,0,.75.24c5.73-.08,10,3,14.49,6.09a11.81,11.81,0,0,1,5.37,9.14c.64,6.06-.39,11.73-4.3,16.61-3.36,4.21-3.8,9.08-3.59,14.2.14,3.41,0,3.44-3.31,3.44-7.46,0-14.92,0-22.38,0-2,0-2.8-.67-2.78-2.73a14.47,14.47,0,0,0-4.81-11.45c-2.31-2.14-3.49-5.5-5.14-8.34s-3.24-5.78-4.94-8.62-3.7-5.35-5.05-8.25-.53-5.07,1.56-6.2A5,5,0,0,1,28.84,44c1.74,2.41,3,5.13,4.72,7.58a20.22,20.22,0,0,0,3.09,3,20.88,20.88,0,0,0,.85-4C37.59,44.38,37.54,38.23,37.54,32.08Z" transform="translate(-18 -4.25)"/><path d="M44.74,54.8a3.79,3.79,0,0,0,.71.51,4.07,4.07,0,0,0,.8.33,3.78,3.78,0,0,0,1.77,0l.27-.07c.22-.07.45-.18.67-.27l.12-.07a4.38,4.38,0,0,0,.7-.52,4.28,4.28,0,0,0,.54-.67l.24-.57a1.71,1.71,0,0,0,0-1,1.12,1.12,0,0,0-.16-.6,1.7,1.7,0,0,0-.49-.77L49.81,51a3.79,3.79,0,0,0-.64-.47,4.71,4.71,0,0,0-.73-.31,4.53,4.53,0,0,0-.81-.12,1.86,1.86,0,0,0-.78.14l-.1,0a1.64,1.64,0,0,0-.38.1,4.14,4.14,0,0,0-.88.41,7.16,7.16,0,0,0-.61.48l-.14.14a1.91,1.91,0,0,0-.49.77,1.7,1.7,0,0,0-.2.92l.08.63A2.41,2.41,0,0,0,44.74,54.8Z" transform="translate(-18 -4.25)"/><path d="M64.88,54.24a3.64,3.64,0,0,0,.71.32,2.48,2.48,0,0,0,.81.11A3.13,3.13,0,0,0,68,54.22a1.37,1.37,0,0,0,.2-.13l.55-.43a.27.27,0,0,0,.08-.07,3.71,3.71,0,0,0,.42-.54.22.22,0,0,0,0-.08,2.91,2.91,0,0,0,.37-1.35,2.59,2.59,0,0,0-.35-1.3,2.42,2.42,0,0,0-.89-.88,2.53,2.53,0,0,0-1.26-.34,1.87,1.87,0,0,0-.53,0h-.26a4.29,4.29,0,0,0-.79.11,2.87,2.87,0,0,0-1.27.74,2.73,2.73,0,0,0-.67,1.15s0,.05,0,.07-.08.49-.09.65v.06a2.8,2.8,0,0,0,.37,1.33A2.9,2.9,0,0,0,64.88,54.24Z" transform="translate(-18 -4.25)"/><path d="M73.24,59.31A3,3,0,0,0,70,58.54,4.28,4.28,0,0,0,67.46,61c-.43,1-.66,2.08-1.5,2.75a2.76,2.76,0,0,1-1,.5l-.26.06v0a5.21,5.21,0,0,0-.06-.88,4.17,4.17,0,0,0-.61-1.59,4.58,4.58,0,0,0-2.7-2c-2.58-.64-4.26,1.49-4.86,3.72-.13.48-.22,1-.36,1.43a3.49,3.49,0,0,1-.45.95,3,3,0,0,1-.25.26l-.1.1h0l0,0s0,0,0,0h0l0,0c0-.1-.16-.35-.15-.29l-.13-.4c-.12-.42-.2-.84-.31-1.27a5.82,5.82,0,0,0-1.27-2.6,4.15,4.15,0,0,0-5.82.07c-.83.87-.9,2.11-1.44,3.06A2.09,2.09,0,0,1,44.43,66a1.23,1.23,0,0,1-.74-.23,1.94,1.94,0,0,1-.25-.31s-.11-.39-.15-.55l0-.1c0-.12,0-.24,0-.36s0-.5,0-.74A13.34,13.34,0,0,0,43,62a3.47,3.47,0,0,0-2.17-2.64,4.37,4.37,0,0,0-4,.92,1.64,1.64,0,0,0-.57,2.18,1.61,1.61,0,0,0,2.17.57,3.25,3.25,0,0,1,1.18-.67h.21s0,.06,0,.06l0,.11a2.62,2.62,0,0,1,.09.38c0,.06,0,.3,0,.36,0,.24,0,.48.05.73a7.31,7.31,0,0,0,.62,2.91,4.13,4.13,0,0,0,2.57,2A5.06,5.06,0,0,0,49,66.21a9.54,9.54,0,0,0,.62-1.64,4.6,4.6,0,0,1,.19-.52l.11-.18c0,.07.23-.13,0,0l.21-.12,0,0,.19,0h.33l.11,0a1.38,1.38,0,0,1,.28.13c-.11-.06,0,0,.06.07l0,0c.05.07.17.34.19.36a8.76,8.76,0,0,1,.32,1.11,8.58,8.58,0,0,0,.78,2.32,3.33,3.33,0,0,0,5.49.4,6.7,6.7,0,0,0,1.43-3c.11-.45.21-.9.36-1.34a2,2,0,0,1,.43-.82c.12-.11.13-.12.2-.15-.12,0,.14,0,.13,0l-.07,0,0,0s.39.11.22,0a.92.92,0,0,1,.38.24,1,1,0,0,1,.3.36,1,1,0,0,1,.13.23h0a.27.27,0,0,0,0,.09s0,.15,0,.21v.14a5.45,5.45,0,0,0,0,1.07,2.86,2.86,0,0,0,3.17,2.25,5.9,5.9,0,0,0,3.58-1.63,9.91,9.91,0,0,0,1.93-3.44c.21-.47.29-.64.59-.8l.15,0a1.59,1.59,0,0,0,2.22,0A1.62,1.62,0,0,0,73.24,59.31ZM55.33,66.25s0,0,0,0h0Zm-.09,0c-.06-.07-.06-.1,0,0Zm9.24-1.88h-.12A.08.08,0,0,1,64.48,64.32Zm-.12,0s.09,0,.13,0h0C64.37,64.37,64.34,64.35,64.36,64.32Zm6.77-2.78s0,0,0,0h0C71.28,61.49,71.22,61.53,71.13,61.54Z" transform="translate(-18 -4.25)"/><path d="M60.42,62.86Z" transform="translate(-18 -4.25)"/></svg>